<svg width="382" height="346" viewBox="0 0 382 346" fill="none" xmlns="http://www.w3.org/2000/svg">
<rect width="382" height="346" fill="#C8102E"/>
<path d="M191 270.366C246.428 270.366 291.362 225.433 291.362 170.004C291.362 114.576 246.428 69.6427 191 69.6427C135.572 69.6427 90.6384 114.576 90.6384 170.004C90.6384 225.433 135.572 270.366 191 270.366Z" fill="#CB9964"/>
<path d="M305.544 157.093C296.936 93.8294 238.672 49.5262 175.409 58.134C145.03 62.2705 117.539 78.3045 98.9824 102.709C80.4255 127.114 72.3227 157.891 76.4563 188.269C85.0641 251.526 143.328 295.829 206.591 287.221C269.855 278.614 314.151 220.349 305.544 157.093ZM283.007 196.036C280.984 200.404 274.563 221.449 273.135 225.949C271.144 232.225 247.924 244.132 244.151 247.785C229.798 261.689 206.282 269.19 184.743 266.922C171.471 265.518 172.28 253.94 149.718 256.051C135.814 257.353 132.218 245.244 124.792 238.608C115.514 230.31 113.858 229.178 106.059 214.232C100.106 202.818 99.2841 192.807 95.6944 177.702C92.1046 162.597 103.234 125.056 111.349 115.665C112.966 113.784 114.744 112.047 116.664 110.476C122.08 106.052 127.775 103.651 133.905 100.364C146.981 93.349 150.836 73.8202 180.673 77.7513C183.751 78.1558 190.526 77.9156 201.327 77.2394C225.69 75.7099 234.191 90.0247 244.802 96.8882C263.13 108.764 270.632 112.056 277.42 131.68C281.18 142.582 296.544 166.825 283.007 196.036Z" fill="#CB9964"/>
<path d="M190.754 290.192C168.89 290.142 147.474 283.994 128.914 272.438C110.354 260.883 95.3859 244.379 85.6928 224.782C75.9996 205.185 71.966 183.272 74.0455 161.508C76.125 139.743 84.2352 118.991 97.464 101.584C111.53 83.0877 130.766 69.1777 152.737 61.6129C174.709 54.0481 198.43 53.1683 220.902 59.0847C243.373 65.0011 263.586 77.448 278.984 94.8516C294.382 112.255 304.274 133.834 307.408 156.859C316.136 221.032 271.043 280.364 206.844 289.098C201.512 289.826 196.136 290.191 190.754 290.192ZM191.234 58.9556C186.027 58.9583 180.827 59.3131 175.668 60.0174C145.789 64.0848 118.749 79.8545 100.497 103.857C82.2446 127.86 74.2745 158.131 78.3397 188.01C86.088 244.953 134.98 286.387 190.924 286.387C196.078 286.389 201.226 286.041 206.332 285.344C268.458 276.888 312.117 219.471 303.66 157.345C299.95 130.139 286.525 105.192 265.862 87.1084C245.199 69.025 218.692 59.0257 191.234 58.9556ZM192.542 269.222C189.87 269.226 187.199 269.086 184.541 268.805C178.727 268.173 175.339 265.771 172.065 263.427C167.471 260.134 162.724 256.74 149.888 257.934C138.828 258.971 133.57 252.202 128.938 246.23C127.319 244.003 125.506 241.924 123.521 240.017L122.403 239.019C114.003 231.523 112.006 229.741 104.372 215.11C99.853 206.445 98.2477 198.754 96.219 189.015C95.5111 185.596 94.778 182.063 93.8426 178.138C89.9685 161.864 101.604 124.033 109.902 114.426C111.593 112.461 113.454 110.648 115.463 109.01C119.761 105.502 124.153 103.252 128.805 100.87C130.176 100.175 131.586 99.4478 133.008 98.6894C136.711 96.6986 139.713 93.5386 142.892 90.189C150.552 82.1437 159.198 73.0176 180.888 75.8679C183.593 76.2218 189.66 76.0638 201.175 75.337C220.483 74.1299 230.481 82.6809 238.514 89.557C240.82 91.6165 243.258 93.5229 245.813 95.264C247.425 96.3068 248.973 97.2864 250.408 98.2154C265.778 108.043 272.787 112.524 279.196 131.029C279.771 132.691 280.637 134.707 281.648 137.052C287.19 149.919 296.474 171.452 284.726 196.807C283.089 200.34 278.311 215.685 276.017 223.054C275.549 224.559 275.176 225.753 274.936 226.499C273.52 230.967 265.02 236.554 254.048 243.386C250.218 245.775 246.597 248.031 245.472 249.124C232.478 261.733 212.368 269.222 192.542 269.222ZM154.85 253.896C165.271 253.896 170.018 257.296 174.271 260.342C177.431 262.586 180.117 264.526 184.939 265.038C206.13 267.269 228.857 259.982 242.83 246.426C244.252 245.048 247.69 242.906 252.045 240.194C258.839 235.96 270.215 228.869 271.327 225.38C271.561 224.634 271.928 223.446 272.395 221.955C274.892 213.928 279.543 198.994 281.288 195.24C292.322 171.42 283.462 150.861 278.165 138.575C277.129 136.167 276.232 134.088 275.637 132.293C269.665 115.033 263.434 111.051 248.392 101.432C246.93 100.505 245.392 99.5195 243.778 98.4746C241.085 96.6341 238.515 94.6179 236.087 92.439C228.181 85.6766 219.225 78.0104 201.453 79.1227C189.521 79.8748 183.429 80.0202 180.433 79.6283C160.639 77.0245 153.029 85.0446 145.673 92.7992C142.279 96.3763 139.075 99.7512 134.828 102.033C133.381 102.81 131.952 103.543 130.568 104.251C126.1 106.533 121.878 108.675 117.89 111.949C116.062 113.448 114.37 115.106 112.834 116.904C105.351 125.562 94.0828 162.54 97.5841 177.26C98.5321 181.241 99.2715 184.799 99.992 188.238C101.958 197.718 103.512 205.156 107.791 213.353C115.109 227.371 116.81 228.888 124.981 236.187L126.106 237.192C128.264 239.249 130.233 241.496 131.99 243.904C136.414 249.592 140.604 255.002 149.591 254.161C151.496 253.984 153.249 253.896 154.85 253.896Z" fill="black"/>
<path d="M134.676 261.436C134.223 261.438 133.784 261.278 133.438 260.984C133.093 260.69 132.864 260.282 132.794 259.834C132.724 259.386 132.816 258.928 133.055 258.542C133.294 258.156 133.662 257.869 134.095 257.732C134.784 257.511 151.083 252.316 160.639 254.275C160.883 254.325 161.115 254.422 161.321 254.562C161.527 254.701 161.704 254.88 161.842 255.088C161.979 255.295 162.074 255.528 162.121 255.773C162.169 256.017 162.167 256.268 162.118 256.513C162.068 256.757 161.97 256.988 161.831 257.195C161.692 257.401 161.513 257.578 161.305 257.715C161.098 257.853 160.865 257.948 160.62 257.995C160.376 258.042 160.124 258.041 159.88 257.991C151.279 256.228 135.397 261.29 135.232 261.341C135.053 261.401 134.865 261.433 134.676 261.436ZM107.102 218.112C106.767 218.113 106.438 218.025 106.149 217.857C105.859 217.69 105.619 217.448 105.452 217.158C101.149 209.574 94.0007 210.56 93.6973 210.61C93.2003 210.688 92.6927 210.566 92.2862 210.269C91.8797 209.973 91.6075 209.527 91.5295 209.03C91.4516 208.533 91.5743 208.026 91.8706 207.619C92.1669 207.213 92.6126 206.941 93.1095 206.863C93.514 206.793 103.114 205.39 108.745 215.281C108.994 215.718 109.059 216.235 108.926 216.72C108.794 217.204 108.474 217.617 108.037 217.866C107.752 218.027 107.43 218.112 107.102 218.112ZM95.4416 165.132C95.1758 165.133 94.9129 165.077 94.6706 164.967C94.4401 164.866 94.232 164.72 94.0586 164.538C93.8851 164.355 93.7497 164.14 93.6603 163.905C93.5709 163.669 93.5292 163.419 93.5377 163.167C93.5463 162.915 93.6048 162.668 93.7099 162.439C99.2779 149.926 88.0978 142.443 87.6175 142.133C87.2523 141.838 87.0096 141.418 86.9364 140.954C86.8631 140.491 86.9645 140.016 87.2209 139.623C87.4773 139.23 87.8705 138.946 88.3244 138.825C88.7782 138.705 89.2605 138.758 89.6778 138.973C89.8231 139.068 104.075 148.497 97.1733 164.007C97.0243 164.341 96.7814 164.626 96.474 164.826C96.1667 165.025 95.8081 165.132 95.4416 165.132ZM119.104 110.52C118.682 110.521 118.273 110.382 117.94 110.124C117.606 109.867 117.368 109.505 117.263 109.097C117.158 108.689 117.192 108.258 117.359 107.871C117.527 107.485 117.818 107.165 118.187 106.962C128.641 101.217 128.047 93.229 128.021 92.894C127.971 92.3911 128.122 91.8889 128.442 91.4978C128.762 91.1067 129.225 90.8587 129.728 90.8084C130.23 90.7581 130.733 90.9096 131.124 91.2297C131.515 91.5497 131.763 92.0119 131.813 92.5148C131.857 92.9509 132.787 103.259 120.033 110.287C119.748 110.443 119.428 110.523 119.104 110.52ZM185.122 79.8369H184.945C167.054 78.2 160.898 70.616 160.664 70.3063C160.363 69.9121 160.229 69.4158 160.29 68.9237C160.35 68.4315 160.601 67.9828 160.989 67.6736C161.377 67.3645 161.87 67.2195 162.363 67.2698C162.857 67.3201 163.311 67.5616 163.628 67.9426C163.736 68.069 169.316 74.5723 185.318 76.0575C185.821 76.081 186.294 76.3032 186.633 76.6754C186.972 77.0476 187.149 77.5391 187.126 78.042C187.102 78.5448 186.88 79.0178 186.508 79.3568C186.136 79.6957 185.644 79.873 185.141 79.8495L185.122 79.8369ZM242.824 97.4002C242.556 97.4014 242.29 97.3457 242.045 97.2368C241.8 97.1278 241.581 96.9681 241.402 96.7682C229.59 83.4203 233.578 75.2802 233.755 74.9452C233.995 74.5221 234.389 74.2076 234.855 74.0668C235.321 73.9261 235.823 73.9699 236.258 74.1892C236.692 74.4085 237.026 74.7864 237.189 75.2448C237.353 75.7031 237.334 76.2068 237.136 76.6516C237.085 76.7654 236.441 78.2569 236.909 81.0756C237.376 83.8943 239 88.3373 244.24 94.2591C244.484 94.5321 244.644 94.8699 244.7 95.2318C244.756 95.5937 244.707 95.9641 244.557 96.2983C244.407 96.6325 244.164 96.9162 243.856 97.1151C243.549 97.314 243.19 97.4196 242.824 97.4191V97.4002ZM288.537 171.9H288.398C288.149 171.883 287.906 171.816 287.683 171.705C287.46 171.593 287.262 171.439 287.098 171.25C286.935 171.062 286.811 170.843 286.732 170.607C286.654 170.37 286.623 170.12 286.641 169.872C287.361 159.981 292.246 148.624 292.455 148.143C292.549 147.907 292.689 147.692 292.867 147.511C293.046 147.33 293.259 147.187 293.494 147.09C293.729 146.993 293.981 146.944 294.235 146.946C294.489 146.949 294.74 147.002 294.973 147.103C295.206 147.205 295.417 147.352 295.592 147.536C295.767 147.72 295.903 147.938 295.992 148.176C296.082 148.414 296.122 148.667 296.112 148.921C296.101 149.175 296.04 149.424 295.931 149.654C295.88 149.761 291.096 160.904 290.426 170.15C290.39 170.626 290.175 171.071 289.824 171.395C289.474 171.72 289.014 171.9 288.537 171.9ZM273.16 227.845C273.002 227.845 272.845 227.826 272.692 227.788C272.206 227.664 271.788 227.353 271.531 226.921C271.274 226.49 271.198 225.975 271.321 225.488C276.225 206.066 289.453 206.724 290.015 206.761C290.518 206.794 290.988 207.025 291.32 207.404C291.653 207.783 291.821 208.278 291.788 208.781C291.756 209.284 291.524 209.753 291.146 210.085C290.767 210.418 290.272 210.586 289.769 210.553C289.301 210.553 279.082 210.225 274.993 226.423C274.888 226.829 274.651 227.19 274.319 227.447C273.988 227.704 273.58 227.844 273.16 227.845ZM205.416 267.8C204.989 267.8 204.575 267.657 204.24 267.392C203.905 267.127 203.669 266.758 203.57 266.342C203.471 265.927 203.516 265.491 203.696 265.104C203.876 264.717 204.181 264.402 204.563 264.21C205.334 263.818 223.75 254.768 242.262 264.21C242.496 264.315 242.706 264.467 242.88 264.656C243.054 264.845 243.188 265.068 243.273 265.31C243.358 265.552 243.393 265.809 243.376 266.065C243.359 266.321 243.291 266.571 243.174 266.8C243.058 267.029 242.896 267.232 242.698 267.396C242.501 267.561 242.273 267.683 242.026 267.757C241.78 267.83 241.522 267.853 241.267 267.823C241.012 267.794 240.765 267.713 240.543 267.585C223.725 259.003 206.414 267.503 206.263 267.585C206.001 267.72 205.711 267.794 205.416 267.8ZM244.151 249.681C243.768 249.68 243.394 249.563 243.079 249.345C242.763 249.128 242.521 248.82 242.385 248.462C242.248 248.104 242.222 247.713 242.312 247.341C242.402 246.968 242.602 246.632 242.887 246.375C258.687 232.168 272.8 237.041 273.394 237.255C273.845 237.439 274.209 237.79 274.409 238.235C274.608 238.68 274.629 239.184 274.466 239.644C274.304 240.104 273.97 240.483 273.535 240.703C273.1 240.923 272.597 240.967 272.13 240.826C271.605 240.643 259.458 236.586 245.447 249.194C245.092 249.514 244.629 249.687 244.151 249.681ZM164.968 275.656C164.583 275.656 164.208 275.54 163.891 275.322C163.574 275.104 163.331 274.795 163.194 274.436C163.057 274.077 163.032 273.684 163.123 273.311C163.214 272.937 163.417 272.6 163.704 272.344C164.247 271.857 177.197 260.5 191.626 265.531C192.101 265.699 192.49 266.048 192.708 266.503C192.925 266.957 192.953 267.48 192.785 267.955C192.618 268.43 192.268 268.819 191.814 269.037C191.359 269.254 190.837 269.282 190.362 269.115C178.069 264.83 166.346 275.068 166.213 275.175C165.87 275.481 165.427 275.652 164.968 275.656Z" fill="black"/>
<path d="M285.901 219.717C287.325 219.717 288.48 218.637 288.48 217.303C288.48 215.97 287.325 214.889 285.901 214.889C284.477 214.889 283.323 215.97 283.323 217.303C283.323 218.637 284.477 219.717 285.901 219.717Z" fill="#FDE5C2"/>
<path d="M282.805 224.302C283.806 222.743 283.646 220.855 282.448 220.085C281.25 219.316 279.467 219.957 278.465 221.516C277.464 223.076 277.624 224.964 278.822 225.733C280.02 226.503 281.804 225.862 282.805 224.302Z" fill="#FDE5C2"/>
<path d="M252.62 92.3315C253.482 92.3315 254.181 91.8024 254.181 91.1497C254.181 90.497 253.482 89.9678 252.62 89.9678C251.758 89.9678 251.059 90.497 251.059 91.1497C251.059 91.8024 251.758 92.3315 252.62 92.3315Z" fill="#FDE5C2"/>
<path d="M261.474 250.148C262.336 250.148 263.035 249.619 263.035 248.966C263.035 248.314 262.336 247.785 261.474 247.785C260.612 247.785 259.913 248.314 259.913 248.966C259.913 249.619 260.612 250.148 261.474 250.148Z" fill="#FDE5C2"/>
<path d="M91.8518 154.261C92.7139 154.261 93.4128 153.732 93.4128 153.079C93.4128 152.427 92.7139 151.898 91.8518 151.898C90.9897 151.898 90.2908 152.427 90.2908 153.079C90.2908 153.732 90.9897 154.261 91.8518 154.261Z" fill="#FDE5C2"/>
<path d="M88.635 160.044C89.4971 160.044 90.196 159.515 90.196 158.862C90.196 158.209 89.4971 157.68 88.635 157.68C87.7728 157.68 87.0739 158.209 87.0739 158.862C87.0739 159.515 87.7728 160.044 88.635 160.044Z" fill="#FDE5C2"/>
<path d="M93.4066 195.543C94.2687 195.543 94.9676 195.014 94.9676 194.362C94.9676 193.709 94.2687 193.18 93.4066 193.18C92.5444 193.18 91.8455 193.709 91.8455 194.362C91.8455 195.014 92.5444 195.543 93.4066 195.543Z" fill="#FDE5C2"/>
<path d="M248.126 86.5487C248.989 86.5487 249.687 86.0196 249.687 85.3669C249.687 84.7142 248.989 84.1851 248.126 84.1851C247.264 84.1851 246.565 84.7142 246.565 85.3669C246.565 86.0196 247.264 86.5487 248.126 86.5487Z" fill="#FDE5C2"/>
</svg>
